<?xml version="1.0" standalone="no"?>
<!DOCTYPE svg PUBLIC "-//W3C//DTD SVG 20010904//EN"
 "http://www.w3.org/TR/2001/REC-SVG-20010904/DTD/svg10.dtd">
<svg version="1.0" xmlns="http://www.w3.org/2000/svg"
 width="69.000000pt" height="74.000000pt" viewBox="0 0 69.000000 74.000000"
 preserveAspectRatio="xMidYMid meet">

<g transform="translate(0.000000,74.000000) scale(0.100000,-0.100000)"
fill="#000000" stroke="none">
<path d="M355 732 c-57 -12 -88 -73 -83 -164 2 -37 1 -67 -2 -65 -53 31 -108
48 -138 43 -121 -19 -103 -169 27 -225 l52 -22 -35 -39 c-102 -113 -36 -241
95 -183 43 19 109 83 109 105 0 6 16 -7 36 -30 72 -84 155 -98 189 -31 22 41
18 90 -10 143 -30 56 -30 56 -7 56 30 0 78 36 92 70 30 72 -57 149 -156 137
l-44 -5 0 57 c0 94 -60 167 -125 153z m61 -27 c30 -20 54 -76 54 -124 0 -52
-33 -118 -65 -133 -29 -13 -80 5 -96 34 -5 10 -13 17 -17 14 -13 -7 -14 132
-1 156 33 64 81 85 125 53z m-181 -198 c66 -37 103 -113 76 -156 -5 -8 -26
-20 -47 -27 -111 -39 -256 107 -184 184 28 30 101 30 155 -1z m390 -16 c64
-36 66 -103 3 -141 -41 -25 -54 -25 -113 1 -27 12 -56 18 -70 15 -24 -6 -38 5
-49 42 -5 16 -3 22 7 22 8 0 30 17 48 38 18 20 42 40 53 43 29 10 85 0 121
-20z m-234 -100 c17 -45 17 -41 -3 -71 -14 -19 -20 -22 -30 -12 -7 7 -20 12
-30 12 -20 0 -24 15 -7 26 7 4 9 24 6 54 l-6 48 28 -11 c18 -7 33 -23 42 -46z
m112 -55 c92 -38 139 -185 74 -231 -29 -21 -52 -19 -99 7 -79 45 -115 163 -66
215 25 26 45 29 91 9z m-150 -43 c14 -17 21 -51 18 -96 -2 -30 -80 -106 -121
-117 -95 -26 -142 53 -86 144 44 73 150 111 189 69z"/>
</g>
</svg>
